# ProBuilder 4.3.1
# https://unity3d.com/unity/features/worldbuilding/probuilder
# 03.08.2020 19.48.27

mtllib ./Cone.mtl
o Cone

g Cone
v -1 1.192093E-07 -1
v -0.5 -0.8660254 -1
v 0 -1.192093E-07 0.9999999
v 0 1.192093E-07 -1
v 0.5 -0.8660254 -1
v 1 2.384186E-07 -1
v 0.4999999 0.8660257 -1
v -0.4999999 0.8660257 -1

vt 0 1.759386E-08
vt 1 0
vt 0.5 2.17945
vt -1 0
vt -0.5 0.8660254
vt 0.5 0.8660254
vt 0.4999999 -0.8660254
vt -0.4999999 -0.8660254

vn -0.7947195 -0.4588315 0.3973596
vn 0 1.37651E-07 -1
vn 5.469698E-08 -0.917663 0.3973596
vn 0.7947195 -0.4588315 0.3973596
vn 0.7947195 0.4588315 0.3973598
vn 0 0.9176629 0.3973599
vn -0.7947195 0.4588314 0.3973597

usemtl ProBuilderDefault
f 1/1/1 2/2/1 3/3/1
f 4/1/2 2/5/2 1/4/2
f 2/1/3 5/2/3 3/3/3
f 4/1/2 5/6/2 2/5/2
f 5/1/4 6/2/4 3/3/4
f 4/1/2 6/2/2 5/6/2
f 6/1/5 7/2/5 3/3/5
f 4/1/2 7/7/2 6/2/2
f 7/1/6 8/2/6 3/3/6
f 4/1/2 8/8/2 7/7/2
f 8/1/7 1/2/7 3/3/7
f 4/1/2 1/4/2 8/8/2

